# Blender v2.78 (sub 0) OBJ File: ''
# www.blender.org
mtllib button.mtl
o switch_round_button_alarm_light
v -0.026707 0.045553 0.000141
v -0.030904 0.047292 0.000141
v -0.033410 0.049798 0.000141
v -0.035149 0.053995 0.000141
v 0.035149 0.053995 0.000141
v 0.033410 0.049798 0.000141
v 0.030904 0.047292 0.000141
v 0.026707 0.045553 0.000141
v -0.035149 0.107409 0.000141
v -0.033410 0.111606 0.000141
v -0.030904 0.114112 0.000141
v -0.026707 0.115851 0.000141
v 0.026707 0.115851 0.000141
v 0.030904 0.114112 0.000141
v 0.033410 0.111606 0.000141
v 0.035149 0.107409 0.000141
v -0.035149 0.053995 0.001765
v -0.033410 0.049798 0.001765
v 0.030904 0.047292 0.001765
v 0.035149 0.053995 0.001765
v -0.033410 0.111606 0.001765
v -0.035149 0.107409 0.001765
v 0.035149 0.107409 0.001765
v 0.033410 0.111606 0.001765
v 0.030904 0.114112 0.001765
v -0.030904 0.047292 0.001765
v -0.026707 0.045553 0.001765
v 0.026707 0.045553 0.001765
v 0.033410 0.049798 0.001765
v -0.026707 0.115851 0.001765
v -0.030904 0.114112 0.001765
v 0.026707 0.115851 0.001765
v -0.033754 0.054273 0.003160
v -0.031503 0.054720 0.004092
v -0.032228 0.050588 0.003160
v -0.030320 0.051863 0.004092
v 0.030114 0.048474 0.003160
v 0.028839 0.050382 0.004092
v 0.033754 0.054273 0.003160
v 0.031503 0.054720 0.004092
v -0.032228 0.110816 0.003160
v -0.030320 0.109541 0.004092
v -0.033754 0.107131 0.003160
v -0.031503 0.106684 0.004092
v 0.033754 0.107131 0.003160
v 0.031503 0.106684 0.004092
v 0.032228 0.110816 0.003160
v 0.030320 0.109541 0.004092
v 0.030114 0.112929 0.003160
v 0.028839 0.111022 0.004092
v -0.030114 0.048474 0.003160
v -0.028839 0.050382 0.004092
v -0.026429 0.046948 0.003160
v -0.025982 0.049198 0.004092
v 0.026429 0.046948 0.003160
v 0.025982 0.049198 0.004092
v 0.032228 0.050588 0.003160
v 0.030320 0.051863 0.004092
v -0.026429 0.114456 0.003160
v -0.025982 0.112205 0.004092
v -0.030114 0.112929 0.003160
v -0.028839 0.111022 0.004092
v 0.026429 0.114456 0.003160
v 0.025982 0.112205 0.004092
v -0.000000 0.099798 0.004092
v -0.004943 0.099148 0.004092
v -0.009548 0.097240 0.004092
v -0.013503 0.094205 0.004092
v -0.016538 0.090250 0.004092
v -0.018446 0.085644 0.004092
v -0.019096 0.080702 0.004092
v -0.018446 0.075759 0.004092
v -0.016538 0.071154 0.004092
v -0.013503 0.067199 0.004092
v -0.009548 0.064164 0.004092
v -0.004943 0.062256 0.004092
v -0.000000 0.061605 0.004092
v 0.004942 0.062256 0.004092
v 0.009548 0.064164 0.004092
v 0.013503 0.067199 0.004092
v 0.016538 0.071154 0.004092
v 0.018446 0.075759 0.004092
v 0.019096 0.080702 0.004092
v 0.018446 0.085644 0.004092
v 0.016538 0.090250 0.004092
v 0.013503 0.094205 0.004092
v 0.009548 0.097240 0.004092
v 0.004943 0.099148 0.004092
v -0.000000 0.099129 0.005807
v -0.000000 0.098521 0.006214
v -0.004612 0.097914 0.006214
v -0.004769 0.098502 0.005807
v -0.008910 0.096134 0.006214
v -0.009214 0.096661 0.005807
v -0.012600 0.093302 0.006214
v -0.013030 0.093732 0.005807
v -0.015432 0.089612 0.006214
v -0.015959 0.089916 0.005807
v -0.017212 0.085314 0.006214
v -0.017800 0.085471 0.005807
v -0.017819 0.080702 0.006214
v -0.018428 0.080702 0.005807
v -0.017212 0.076090 0.006214
v -0.017800 0.075933 0.005807
v -0.015432 0.071792 0.006214
v -0.015959 0.071488 0.005807
v -0.012600 0.068102 0.006214
v -0.013030 0.067672 0.005807
v -0.008910 0.065270 0.006214
v -0.009214 0.064743 0.005807
v -0.004612 0.063490 0.006214
v -0.004769 0.062902 0.005807
v -0.000000 0.062882 0.006214
v -0.000000 0.062274 0.005807
v 0.004612 0.063490 0.006214
v 0.004769 0.062902 0.005807
v 0.008910 0.065270 0.006214
v 0.009214 0.064743 0.005807
v 0.012600 0.068102 0.006214
v 0.013030 0.067672 0.005807
v 0.015432 0.071792 0.006214
v 0.015959 0.071488 0.005807
v 0.017212 0.076090 0.006214
v 0.017800 0.075932 0.005807
v 0.017819 0.080702 0.006214
v 0.018427 0.080702 0.005807
v 0.017212 0.085314 0.006214
v 0.017800 0.085471 0.005807
v 0.015432 0.089612 0.006214
v 0.015959 0.089916 0.005807
v 0.012600 0.093302 0.006214
v 0.013030 0.093732 0.005807
v 0.008910 0.096134 0.006214
v 0.009214 0.096661 0.005807
v 0.004612 0.097914 0.006214
v 0.004769 0.098502 0.005807
v -0.002677 0.090691 0.005626
v -0.000000 0.091043 0.005626
v -0.005171 0.089658 0.005626
v -0.007312 0.088014 0.005626
v -0.008956 0.085873 0.005626
v -0.009989 0.083378 0.005626
v -0.010341 0.080702 0.005626
v -0.009989 0.078025 0.005626
v -0.008956 0.075531 0.005626
v -0.007312 0.073390 0.005626
v -0.005171 0.071746 0.005626
v -0.002677 0.070713 0.005626
v -0.000000 0.070361 0.005626
v 0.002676 0.070713 0.005626
v 0.005171 0.071746 0.005626
v 0.007312 0.073390 0.005626
v 0.008956 0.075531 0.005626
v 0.009989 0.078025 0.005626
v 0.010341 0.080702 0.005626
v 0.009989 0.083378 0.005626
v 0.008956 0.085873 0.005626
v 0.007312 0.088014 0.005626
v 0.005171 0.089658 0.005626
v 0.002677 0.090691 0.005626
v -0.002348 0.089463 0.008932
v -0.002677 0.090691 0.007672
v -0.000000 0.091043 0.007672
v -0.000000 0.089772 0.008932
v -0.004535 0.088557 0.008932
v -0.005171 0.089658 0.007672
v -0.006414 0.087116 0.008932
v -0.007312 0.088014 0.007672
v -0.007855 0.085237 0.008932
v -0.008956 0.085873 0.007672
v -0.008761 0.083049 0.008932
v -0.009989 0.083378 0.007672
v -0.009070 0.080702 0.008932
v -0.010341 0.080702 0.007672
v -0.008761 0.078354 0.008932
v -0.009989 0.078025 0.007672
v -0.007855 0.076167 0.008932
v -0.008956 0.075531 0.007672
v -0.006414 0.074288 0.008932
v -0.007312 0.073390 0.007672
v -0.004535 0.072847 0.008932
v -0.005171 0.071746 0.007672
v -0.002348 0.071941 0.008932
v -0.002677 0.070713 0.007672
v -0.000000 0.071632 0.008932
v -0.000000 0.070361 0.007672
v 0.002348 0.071941 0.008932
v 0.002676 0.070713 0.007672
v 0.004535 0.072847 0.008932
v 0.005171 0.071746 0.007672
v 0.006414 0.074288 0.008932
v 0.007312 0.073390 0.007672
v 0.007855 0.076167 0.008932
v 0.008956 0.075531 0.007672
v 0.008761 0.078354 0.008932
v 0.009989 0.078025 0.007672
v 0.009070 0.080702 0.008932
v 0.010341 0.080702 0.007672
v 0.008761 0.083049 0.008932
v 0.009989 0.083378 0.007672
v 0.007855 0.085237 0.008932
v 0.008956 0.085873 0.007672
v 0.006414 0.087116 0.008932
v 0.007312 0.088014 0.007672
v 0.004535 0.088557 0.008932
v 0.005171 0.089658 0.007672
v 0.002348 0.089463 0.008932
v 0.002677 0.090691 0.007672
vt 0.0001 0.8798
vt 0.0265 0.8598
vt 0.0499 0.9163
vt 0.0248 0.9395
vt 0.0499 0.0837
vt 0.0248 0.0605
vt 0.0605 0.0248
vt 0.0837 0.0499
vt 0.1402 0.0265
vt 0.1202 0.0001
vt 0.8798 0.0001
vt 0.8598 0.0265
vt 0.0837 0.9501
vt 0.0605 0.9752
vt 0.9752 0.0605
vt 0.9501 0.0837
vt 0.9163 0.0499
vt 0.9395 0.0248
vt 0.8798 0.9999
vt 0.8598 0.9735
vt 0.9163 0.9501
vt 0.9395 0.9752
vt 0.1402 0.9735
vt 0.1202 0.9999
vt 0.9735 0.8598
vt 0.9999 0.8798
vt 0.9752 0.9395
vt 0.9501 0.9163
vt 0.0265 0.1402
vt 0.0001 0.1202
vt 0.9735 0.1402
vt 0.9999 0.1202
vt 0.1020 0.0740
vt 0.0740 0.1020
vt 0.8493 0.0539
vt 0.1507 0.0539
vt 0.0740 0.8980
vt 0.1020 0.9260
vt 0.0539 0.8493
vt 0.9260 0.1020
vt 0.8980 0.0740
vt 0.8493 0.9461
vt 0.8980 0.9260
vt 0.0539 0.1507
vt 0.9461 0.8493
vt 0.9461 0.1507
vt 0.1507 0.9461
vt 0.9260 0.8980
vt 0.1566 0.0836
vt 0.1188 0.0993
vt 0.8812 0.0993
vt 0.8434 0.0836
vt 0.1188 0.9007
vt 0.1566 0.9164
vt 0.0993 0.8812
vt 0.8434 0.9164
vt 0.0993 0.1188
vt 0.0836 0.1566
vt 0.9164 0.1566
vt 0.9007 0.1188
vt 0.0836 0.8434
vt 0.9164 0.8434
vt 0.9007 0.8812
vt 0.8812 0.9007
vt 0.4299 0.2385
vt 0.5000 0.2293
vt 0.5000 0.2564
vt 0.4370 0.2647
vt 0.2385 0.4299
vt 0.2293 0.5000
vt 0.2655 0.3646
vt 0.3086 0.3086
vt 0.3646 0.2655
vt 0.5701 0.2385
vt 0.6354 0.2655
vt 0.6914 0.3086
vt 0.7345 0.3646
vt 0.7615 0.5701
vt 0.7707 0.5000
vt 0.7345 0.6354
vt 0.6914 0.6914
vt 0.6354 0.7345
vt 0.4299 0.7615
vt 0.5000 0.7707
vt 0.3646 0.7345
vt 0.3086 0.6914
vt 0.2655 0.6354
vt 0.2385 0.5701
vt 0.7615 0.4299
vt 0.5701 0.7615
vt 0.2564 0.5000
vt 0.2647 0.5630
vt 0.5630 0.7353
vt 0.6218 0.7109
vt 0.3782 0.2891
vt 0.3278 0.3278
vt 0.6722 0.6722
vt 0.7109 0.6218
vt 0.2891 0.3782
vt 0.2647 0.4370
vt 0.7353 0.5630
vt 0.7436 0.5000
vt 0.2891 0.6218
vt 0.3278 0.6722
vt 0.7353 0.4370
vt 0.7109 0.3782
vt 0.3782 0.7109
vt 0.4370 0.7353
vt 0.6722 0.3278
vt 0.6218 0.2891
vt 0.5000 0.7436
vt 0.5630 0.2647
vt 0.2808 0.4413
vt 0.2730 0.5000
vt 0.3034 0.3865
vt 0.3395 0.3395
vt 0.3865 0.3034
vt 0.4413 0.2808
vt 0.5000 0.2730
vt 0.5587 0.2808
vt 0.6135 0.3034
vt 0.6605 0.3395
vt 0.6966 0.3865
vt 0.7192 0.4413
vt 0.7270 0.5000
vt 0.7192 0.5587
vt 0.6966 0.6135
vt 0.6605 0.6605
vt 0.6135 0.6966
vt 0.5587 0.7192
vt 0.5000 0.7270
vt 0.4413 0.7192
vt 0.3865 0.6966
vt 0.3395 0.6605
vt 0.3034 0.6135
vt 0.2808 0.5587
vt 0.3640 0.5785
vt 0.3483 0.5407
vt 0.3759 0.5333
vt 0.3887 0.5643
vt 0.3483 0.4593
vt 0.3429 0.5000
vt 0.3640 0.4215
vt 0.3889 0.3889
vt 0.4215 0.3640
vt 0.4593 0.3483
vt 0.5000 0.3429
vt 0.5407 0.3483
vt 0.5785 0.3640
vt 0.6111 0.3889
vt 0.6360 0.4215
vt 0.6517 0.4593
vt 0.6571 0.5000
vt 0.6517 0.5407
vt 0.6360 0.5785
vt 0.6111 0.6111
vt 0.5785 0.6360
vt 0.5407 0.6517
vt 0.5000 0.6571
vt 0.4593 0.6517
vt 0.4215 0.6360
vt 0.3889 0.6111
vt 0.3887 0.4357
vt 0.3759 0.4667
vt 0.6285 0.5000
vt 0.6241 0.4667
vt 0.4091 0.5909
vt 0.4357 0.6113
vt 0.6113 0.4357
vt 0.5909 0.4091
vt 0.4667 0.6241
vt 0.5000 0.6285
vt 0.5643 0.3887
vt 0.5333 0.3759
vt 0.5000 0.3715
vt 0.4667 0.3759
vt 0.5333 0.6241
vt 0.5643 0.6113
vt 0.4357 0.3887
vt 0.4091 0.4091
vt 0.5909 0.5909
vt 0.6113 0.5643
vt 0.4021 0.4738
vt 0.4122 0.4493
vt 0.4283 0.4283
vt 0.4493 0.4122
vt 0.4738 0.4021
vt 0.5000 0.3986
vt 0.5262 0.4021
vt 0.5507 0.4122
vt 0.5717 0.4283
vt 0.5878 0.4493
vt 0.5979 0.4738
vt 0.6014 0.5000
vt 0.5979 0.5262
vt 0.5878 0.5507
vt 0.5717 0.5717
vt 0.5507 0.5878
vt 0.5262 0.5979
vt 0.5000 0.6014
vt 0.4738 0.5979
vt 0.4493 0.5878
vt 0.4283 0.5717
vt 0.4122 0.5507
vt 0.4021 0.5262
vt 0.3986 0.5000
vt 0.6241 0.5333
vt 0.3715 0.5000
vn 0.1951 0.9808 0.0000
vn 0.1812 0.9108 0.3710
vn 0.5159 0.7721 0.3710
vn 0.5556 0.8315 0.0000
vn -0.5159 0.7721 0.3710
vn -0.5556 0.8315 0.0000
vn -0.8315 0.5556 0.0000
vn -0.7721 0.5159 0.3710
vn -0.9108 0.1812 0.3710
vn -0.9808 0.1951 0.0000
vn -0.9808 -0.1951 0.0000
vn -0.9108 -0.1812 0.3710
vn 0.7721 0.5159 0.3710
vn 0.8315 0.5556 0.0000
vn -0.5556 -0.8315 0.0000
vn -0.5159 -0.7721 0.3710
vn -0.7721 -0.5159 0.3710
vn -0.8315 -0.5556 0.0000
vn 0.9808 -0.1951 0.0000
vn 0.9108 -0.1812 0.3710
vn 0.7721 -0.5159 0.3710
vn 0.8315 -0.5556 0.0000
vn 0.9108 0.1812 0.3710
vn 0.9808 0.1951 0.0000
vn 0.1812 -0.9108 0.3710
vn 0.1951 -0.9808 0.0000
vn 0.5556 -0.8315 0.0000
vn 0.5159 -0.7721 0.3710
vn -0.1812 0.9108 0.3710
vn -0.1951 0.9808 0.0000
vn -0.1812 -0.9108 0.3710
vn -0.1951 -0.9808 0.0000
vn -0.4699 0.3140 0.8250
vn -0.3140 0.4699 0.8250
vn -0.5543 -0.1103 0.8250
vn -0.5543 0.1103 0.8250
vn 0.3140 0.4699 0.8250
vn 0.4699 0.3140 0.8250
vn 0.1103 0.5543 0.8250
vn -0.3140 -0.4699 0.8250
vn -0.4699 -0.3140 0.8250
vn 0.5543 -0.1103 0.8250
vn 0.4699 -0.3140 0.8250
vn -0.1103 0.5543 0.8250
vn 0.1103 -0.5543 0.8250
vn -0.1103 -0.5543 0.8250
vn 0.5543 0.1103 0.8250
vn 0.3140 -0.4699 0.8250
vn -0.3691 0.0734 0.9265
vn -0.3129 0.2091 0.9265
vn -0.3129 -0.2091 0.9265
vn -0.3691 -0.0734 0.9265
vn 0.3129 0.2091 0.9265
vn 0.3691 0.0734 0.9265
vn 0.2091 0.3130 0.9265
vn 0.3691 -0.0734 0.9265
vn -0.2091 0.3130 0.9265
vn -0.0734 0.3691 0.9265
vn -0.0734 -0.3691 0.9265
vn -0.2091 -0.3129 0.9265
vn 0.0734 0.3691 0.9265
vn 0.0734 -0.3691 0.9265
vn 0.2091 -0.3129 0.9265
vn 0.3129 -0.2091 0.9265
vn -0.8999 0.2411 0.3634
vn -0.9316 0.0000 0.3634
vn -0.0000 0.0000 1.0000
vn 0.2411 0.8999 0.3634
vn -0.0000 0.9316 0.3634
vn 0.8068 -0.4658 0.3634
vn 0.8999 -0.2411 0.3634
vn -0.6588 0.6588 0.3634
vn -0.8068 0.4658 0.3634
vn 0.4658 -0.8068 0.3634
vn 0.6588 -0.6588 0.3634
vn -0.2411 0.8999 0.3634
vn -0.4658 0.8068 0.3634
vn -0.0000 -0.9316 0.3634
vn 0.2411 -0.8999 0.3634
vn 0.6588 0.6588 0.3634
vn 0.4658 0.8068 0.3634
vn -0.4658 -0.8068 0.3634
vn -0.2411 -0.8999 0.3634
vn 0.8999 0.2411 0.3634
vn 0.8068 0.4658 0.3634
vn -0.8068 -0.4658 0.3634
vn -0.6588 -0.6588 0.3634
vn 0.9316 -0.0000 0.3634
vn -0.8999 -0.2411 0.3634
vn -0.1438 0.5368 0.8314
vn -0.0000 0.5557 0.8314
vn -0.2779 0.4813 0.8313
vn -0.3930 0.3930 0.8314
vn -0.4813 0.2779 0.8314
vn -0.5368 0.1438 0.8313
vn -0.5557 0.0000 0.8313
vn -0.5368 -0.1438 0.8313
vn -0.4813 -0.2779 0.8313
vn -0.3930 -0.3930 0.8313
vn -0.2779 -0.4813 0.8313
vn -0.1438 -0.5368 0.8313
vn -0.0000 -0.5558 0.8313
vn 0.1438 -0.5368 0.8314
vn 0.2779 -0.4813 0.8314
vn 0.3930 -0.3930 0.8314
vn 0.4813 -0.2779 0.8313
vn 0.5368 -0.1438 0.8313
vn 0.5558 0.0000 0.8313
vn 0.5368 0.1438 0.8313
vn 0.4813 0.2779 0.8313
vn 0.3930 0.3930 0.8314
vn 0.2779 0.4813 0.8314
vn 0.1438 0.5368 0.8314
vn 0.5000 0.8660 0.0000
vn 0.2588 0.9659 0.0000
vn 0.2401 0.8959 0.3738
vn 0.4638 0.8033 0.3738
vn 0.0203 -0.0757 0.9969
vn 0.0000 -0.0784 0.9969
vn 0.0392 -0.0679 0.9969
vn 0.0554 -0.0554 0.9969
vn 0.0679 -0.0392 0.9969
vn 0.0757 -0.0203 0.9969
vn 0.0784 0.0000 0.9969
vn 0.0757 0.0203 0.9969
vn 0.0679 0.0392 0.9969
vn 0.0554 0.0554 0.9969
vn 0.0392 0.0679 0.9969
vn 0.0203 0.0757 0.9969
vn 0.0000 0.0784 0.9969
vn -0.0203 0.0757 0.9969
vn -0.0392 0.0679 0.9969
vn -0.0554 0.0554 0.9969
vn -0.0679 0.0392 0.9969
vn -0.0757 0.0203 0.9969
vn -0.0784 0.0000 0.9969
vn -0.0757 -0.0203 0.9969
vn -0.0679 -0.0392 0.9969
vn -0.0554 -0.0554 0.9969
vn -0.0392 -0.0679 0.9969
vn -0.0203 -0.0757 0.9969
vn -0.2588 0.9659 0.0000
vn -0.5000 0.8660 0.0000
vn -0.4638 0.8033 0.3738
vn -0.2401 0.8959 0.3738
vn -0.2588 -0.9659 0.0000
vn -0.0000 -1.0000 0.0000
vn -0.0000 -0.9275 0.3738
vn -0.2401 -0.8959 0.3738
vn 0.8660 0.5000 0.0000
vn 0.7071 0.7071 0.0000
vn 0.6559 0.6559 0.3738
vn 0.8033 0.4638 0.3738
vn -0.7071 -0.7071 0.0000
vn -0.5000 -0.8660 0.0000
vn -0.4638 -0.8033 0.3738
vn -0.6559 -0.6559 0.3738
vn 1.0000 -0.0000 0.0000
vn 0.9659 0.2588 0.0000
vn 0.8959 0.2401 0.3738
vn 0.9275 0.0000 0.3738
vn -0.9659 -0.2588 0.0000
vn -0.8660 -0.5000 0.0000
vn -0.8033 -0.4638 0.3738
vn -0.8959 -0.2401 0.3738
vn -0.9659 0.2588 0.0000
vn -1.0000 -0.0000 0.0000
vn -0.9275 0.0000 0.3738
vn -0.8959 0.2401 0.3738
vn 0.8660 -0.5000 0.0000
vn 0.9659 -0.2588 0.0000
vn 0.8959 -0.2401 0.3738
vn 0.8033 -0.4638 0.3738
vn -0.7071 0.7071 0.0000
vn -0.8660 0.5000 0.0000
vn -0.8033 0.4638 0.3738
vn -0.6559 0.6559 0.3738
vn 0.5000 -0.8660 0.0000
vn 0.7071 -0.7071 0.0000
vn 0.6559 -0.6559 0.3738
vn 0.4638 -0.8033 0.3738
vn 0.2588 -0.9659 0.0000
vn 0.2401 -0.8959 0.3738
vn -0.0000 1.0000 0.0000
vn -0.0000 0.9275 0.3738
vn -0.1822 0.6801 0.7101
vn -0.0000 0.7041 0.7101
vn -0.3520 0.6097 0.7101
vn -0.4978 0.4978 0.7101
vn -0.6097 0.3520 0.7101
vn -0.6801 0.1822 0.7101
vn -0.7041 0.0000 0.7101
vn -0.6801 -0.1822 0.7101
vn -0.6097 -0.3520 0.7101
vn -0.4978 -0.4978 0.7101
vn -0.3520 -0.6097 0.7101
vn -0.1822 -0.6801 0.7101
vn -0.0000 -0.7041 0.7101
vn 0.1822 -0.6801 0.7101
vn 0.3520 -0.6097 0.7101
vn 0.4978 -0.4978 0.7101
vn 0.6097 -0.3520 0.7101
vn 0.6801 -0.1822 0.7101
vn 0.7041 0.0000 0.7101
vn 0.6801 0.1822 0.7101
vn 0.6097 0.3520 0.7101
vn 0.4978 0.4978 0.7101
vn 0.3520 0.6097 0.7101
vn 0.1822 0.6801 0.7101
usemtl switch_round_button
s 1
f 13/1/1 32/2/2 25/3/3 14/4/4
f 31/5/5 11/6/6 10/7/7 21/8/8
f 22/9/9 9/10/10 4/11/11 17/12/12
f 14/4/4 25/3/3 24/13/13 15/14/14
f 2/15/15 26/16/16 18/17/17 3/18/18
f 5/19/19 20/20/20 29/21/21 6/22/22
f 23/23/23 16/24/24 15/14/14 24/13/13
f 28/25/25 8/26/26 7/27/27 19/28/28
f 19/28/28 7/27/27 6/22/22 29/21/21
f 30/29/29 12/30/30 11/6/6 31/5/5
f 32/2/2 13/1/1 12/30/30 30/29/29
f 27/31/31 1/32/32 8/26/26 28/25/25
f 1/32/32 27/31/31 26/16/16 2/15/15
f 16/24/24 23/23/23 20/20/20 5/19/19
f 9/10/10 22/9/9 21/8/8 10/7/7
f 17/12/12 4/11/11 3/18/18 18/17/17
f 31/5/5 21/8/8 41/33/33 61/34/34
f 22/9/9 17/12/12 33/35/35 43/36/36
f 24/13/13 25/3/3 49/37/37 47/38/38
f 63/39/39 49/37/37 25/3/3 32/2/2
f 18/17/17 26/16/16 51/40/40 35/41/41
f 39/42/42 57/43/43 29/21/21 20/20/20
f 32/2/2 30/29/29 59/44/44 63/39/39
f 27/31/31 28/25/25 55/45/45 53/46/46
f 61/34/34 59/44/44 30/29/29 31/5/5
f 53/46/46 51/40/40 26/16/16 27/31/31
f 20/20/20 23/23/23 45/47/47 39/42/42
f 43/36/36 41/33/33 21/8/8 22/9/9
f 47/38/38 45/47/47 23/23/23 24/13/13
f 19/28/28 29/21/21 57/43/43 37/48/48
f 37/48/48 55/45/45 28/25/25 19/28/28
f 35/41/41 33/35/35 17/12/12 18/17/17
f 44/49/49 42/50/50 41/33/33 43/36/36
f 36/51/51 34/52/52 33/35/35 35/41/41
f 48/53/53 46/54/54 45/47/47 47/38/38
f 50/55/55 48/53/53 47/38/38 49/37/37
f 34/52/52 44/49/49 43/36/36 33/35/35
f 46/54/54 40/56/56 39/42/42 45/47/47
f 62/57/57 60/58/58 59/44/44 61/34/34
f 54/59/59 52/60/60 51/40/40 53/46/46
f 60/58/58 64/61/61 63/39/39 59/44/44
f 56/62/62 54/59/59 53/46/46 55/45/45
f 64/61/61 50/55/55 49/37/37 63/39/39
f 38/63/63 56/62/62 55/45/45 37/48/48
f 40/56/56 58/64/64 57/43/43 39/42/42
f 42/50/50 62/57/57 61/34/34 41/33/33
f 52/60/60 36/51/51 35/41/41 51/40/40
f 58/64/64 38/63/63 37/48/48 57/43/43
f 70/65/65 71/66/66 102/67/66 100/68/65
f 60/58/67 66/69/67 65/70/67
f 60/58/67 62/57/67 67/71/67 66/69/67
f 62/57/67 42/50/67 68/72/67 67/71/67
f 42/50/67 44/49/67 69/73/67 68/72/67
f 34/52/67 72/74/67 71/66/67
f 34/52/67 36/51/67 73/75/67 72/74/67
f 36/51/67 52/60/67 74/76/67 73/75/67
f 52/60/67 54/59/67 75/77/67 74/76/67
f 56/62/67 78/78/67 77/79/67
f 56/62/67 38/63/67 79/80/67 78/78/67
f 38/63/67 58/64/67 80/81/67 79/80/67
f 58/64/67 40/56/67 81/82/67 80/81/67
f 46/54/67 84/83/67 83/84/67
f 46/54/67 48/53/67 85/85/67 84/83/67
f 48/53/67 50/55/67 86/86/67 85/85/67
f 50/55/67 64/61/67 87/87/67 86/86/67
f 87/87/67 64/61/67 88/88/67
f 65/70/67 88/88/67 64/61/67
f 69/73/67 44/49/67 70/65/67
f 71/66/67 70/65/67 44/49/67
f 75/77/67 54/59/67 76/89/67
f 77/79/67 76/89/67 54/59/67
f 81/82/67 40/56/67 82/90/67
f 83/84/67 82/90/67 40/56/67
f 64/61/67 60/58/67 65/70/67
f 44/49/67 34/52/67 71/66/67
f 54/59/67 56/62/67 77/79/67
f 40/56/67 46/54/67 83/84/67
f 88/88/68 65/70/69 89/91/69 136/92/68
f 81/82/70 82/90/71 124/93/71 122/94/70
f 68/72/72 69/73/73 98/95/73 96/96/72
f 79/80/74 80/81/75 120/97/75 118/98/74
f 66/69/76 67/71/77 94/99/77 92/100/76
f 77/79/78 78/78/79 116/101/79 114/102/78
f 86/86/80 87/87/81 134/103/81 132/104/80
f 75/77/82 76/89/83 112/105/83 110/106/82
f 84/83/84 85/85/85 130/107/85 128/108/84
f 73/75/86 74/76/87 108/109/87 106/110/86
f 82/90/71 83/84/88 126/111/88 124/93/71
f 71/66/66 72/74/89 104/112/89 102/67/66
f 69/73/73 70/65/65 100/68/65 98/95/73
f 80/81/75 81/82/70 122/94/70 120/97/75
f 65/70/69 66/69/76 92/100/76 89/91/69
f 67/71/77 68/72/72 96/96/72 94/99/77
f 78/78/79 79/80/74 118/98/74 116/101/79
f 87/87/81 88/88/68 136/92/68 134/103/81
f 76/89/83 77/79/78 114/102/78 112/105/83
f 85/85/85 86/86/80 132/104/80 130/107/85
f 74/76/87 75/77/82 110/106/82 108/109/87
f 83/84/88 84/83/84 128/108/84 126/111/88
f 72/74/89 73/75/86 106/110/86 104/112/89
f 91/113/90 90/114/91 89/91/91 92/100/90
f 93/115/92 91/113/90 92/100/90 94/99/92
f 95/116/93 93/115/92 94/99/92 96/96/93
f 97/117/94 95/116/93 96/96/93 98/95/94
f 99/118/95 97/117/94 98/95/94 100/68/95
f 101/119/96 99/118/95 100/68/95 102/67/96
f 103/120/97 101/119/96 102/67/96 104/112/97
f 105/121/98 103/120/97 104/112/97 106/110/98
f 107/122/99 105/121/98 106/110/98 108/109/99
f 109/123/100 107/122/99 108/109/99 110/106/100
f 111/124/101 109/123/100 110/106/100 112/105/101
f 113/125/102 111/124/101 112/105/101 114/102/102
f 115/126/103 113/125/102 114/102/102 116/101/103
f 117/127/104 115/126/103 116/101/103 118/98/104
f 119/128/105 117/127/104 118/98/104 120/97/105
f 121/129/106 119/128/105 120/97/105 122/94/106
f 123/130/107 121/129/106 122/94/106 124/93/107
f 125/131/108 123/130/107 124/93/107 126/111/108
f 127/132/109 125/131/108 126/111/108 128/108/109
f 129/133/110 127/132/109 128/108/109 130/107/110
f 131/134/111 129/133/110 130/107/110 132/104/111
f 133/135/112 131/134/111 132/104/111 134/103/112
f 135/136/113 133/135/112 134/103/112 136/92/113
f 90/114/91 135/136/113 136/92/113 89/91/91
f 159/137/114 160/138/115 208/139/116 206/140/117
f 137/141/118 138/142/119 90/114/119 91/113/118
f 139/143/120 137/141/118 91/113/118 93/115/120
f 140/144/121 139/143/120 93/115/120 95/116/121
f 141/145/122 140/144/121 95/116/121 97/117/122
f 142/146/123 141/145/122 97/117/122 99/118/123
f 143/147/124 142/146/123 99/118/123 101/119/124
f 144/148/125 143/147/124 101/119/124 103/120/125
f 145/149/126 144/148/125 103/120/125 105/121/126
f 146/150/127 145/149/126 105/121/126 107/122/127
f 147/151/128 146/150/127 107/122/127 109/123/128
f 148/152/129 147/151/128 109/123/128 111/124/129
f 149/153/130 148/152/129 111/124/129 113/125/130
f 150/154/131 149/153/130 113/125/130 115/126/131
f 151/155/132 150/154/131 115/126/131 117/127/132
f 152/156/133 151/155/132 117/127/132 119/128/133
f 153/157/134 152/156/133 119/128/133 121/129/134
f 154/158/135 153/157/134 121/129/134 123/130/135
f 155/159/136 154/158/135 123/130/135 125/131/136
f 156/160/137 155/159/136 125/131/136 127/132/137
f 157/161/138 156/160/137 127/132/137 129/133/138
f 158/162/139 157/161/138 129/133/138 131/134/139
f 159/137/140 158/162/139 131/134/139 133/135/140
f 160/138/141 159/137/140 133/135/140 135/136/141
f 138/142/119 160/138/141 135/136/141 90/114/119
f 137/141/142 139/143/143 166/163/144 162/164/145
f 148/152/146 149/153/147 186/165/148 184/166/149
f 157/161/150 158/162/151 204/167/152 202/168/153
f 146/150/154 147/151/155 182/169/156 180/170/157
f 155/159/158 156/160/159 200/171/160 198/172/161
f 144/148/162 145/149/163 178/173/164 176/174/165
f 142/146/166 143/147/167 174/175/168 172/176/169
f 153/157/170 154/158/171 196/177/172 194/178/173
f 140/144/174 141/145/175 170/179/176 168/180/177
f 151/155/178 152/156/179 192/181/180 190/182/181
f 161/183/67 165/184/67 167/185/67 169/186/67 171/187/67 173/188/67 175/189/67 177/190/67 179/191/67 181/192/67 183/193/67 185/194/67 187/195/67 189/196/67 191/197/67 193/198/67 195/199/67 197/200/67 199/201/67 201/202/67 203/203/67 205/204/67 207/205/67 164/206/67
f 149/153/147 150/154/182 188/207/183 186/165/148
f 158/162/151 159/137/114 206/140/117 204/167/152
f 147/151/155 148/152/146 184/166/149 182/169/156
f 156/160/159 157/161/150 202/168/153 200/171/160
f 145/149/163 146/150/154 180/170/157 178/173/164
f 154/158/171 155/159/158 198/172/161 196/177/172
f 143/147/167 144/148/162 176/174/165 174/175/168
f 141/145/175 142/146/166 172/176/169 170/179/176
f 152/156/179 153/157/170 194/178/173 192/181/180
f 139/143/143 140/144/174 168/180/177 166/163/144
f 160/138/115 138/142/184 163/208/185 208/139/116
f 150/154/182 151/155/178 190/182/181 188/207/183
f 161/183/186 164/206/187 163/208/185 162/164/145
f 165/184/188 161/183/186 162/164/145 166/163/144
f 167/185/189 165/184/188 166/163/144 168/180/177
f 169/186/190 167/185/189 168/180/177 170/179/176
f 171/187/191 169/186/190 170/179/176 172/176/169
f 173/188/192 171/187/191 172/176/169 174/175/168
f 175/189/193 173/188/192 174/175/168 176/174/165
f 177/190/194 175/189/193 176/174/165 178/173/164
f 179/191/195 177/190/194 178/173/164 180/170/157
f 181/192/196 179/191/195 180/170/157 182/169/156
f 183/193/197 181/192/196 182/169/156 184/166/149
f 185/194/198 183/193/197 184/166/149 186/165/148
f 187/195/199 185/194/198 186/165/148 188/207/183
f 189/196/200 187/195/199 188/207/183 190/182/181
f 191/197/201 189/196/200 190/182/181 192/181/180
f 193/198/202 191/197/201 192/181/180 194/178/173
f 195/199/203 193/198/202 194/178/173 196/177/172
f 197/200/204 195/199/203 196/177/172 198/172/161
f 199/201/205 197/200/204 198/172/161 200/171/160
f 201/202/206 199/201/205 200/171/160 202/168/153
f 203/203/207 201/202/206 202/168/153 204/167/152
f 205/204/208 203/203/207 204/167/152 206/140/117
f 207/205/209 205/204/208 206/140/117 208/139/116
f 164/206/187 207/205/209 208/139/116 163/208/185
f 138/142/184 137/141/142 162/164/145 163/208/185
